<mxfile host="Electron" agent="Mozilla/5.0 (Macintosh; Intel Mac OS X 10_15_7) AppleWebKit/537.36 (KHTML, like Gecko) draw.io/24.7.8 Chrome/128.0.6613.36 Electron/32.0.1 Safari/537.36" version="24.7.8">
  <diagram name="第 1 页" id="NgNTI_TZjOt-nixpzmjs">
    <mxGraphModel dx="1080" dy="782" grid="1" gridSize="10" guides="1" tooltips="1" connect="1" arrows="1" fold="1" page="1" pageScale="1" pageWidth="827" pageHeight="1169" math="0" shadow="0">
      <root>
        <mxCell id="0" />
        <mxCell id="1" parent="0" />
        <mxCell id="C5ALai-2bplRqJHYzNEo-1" value="" style="group" parent="1" vertex="1" connectable="0">
          <mxGeometry x="40" y="40" width="440" height="230" as="geometry" />
        </mxCell>
        <mxCell id="yfvwBcR-MxjjDzGaFpXF-57" value="" style="rounded=0;whiteSpace=wrap;html=1;fillStyle=hatch;fillColor=none;" parent="C5ALai-2bplRqJHYzNEo-1" vertex="1">
          <mxGeometry width="440" height="230" as="geometry" />
        </mxCell>
        <mxCell id="yfvwBcR-MxjjDzGaFpXF-48" value="" style="endArrow=none;html=1;rounded=0;" parent="C5ALai-2bplRqJHYzNEo-1" edge="1">
          <mxGeometry width="50" height="50" relative="1" as="geometry">
            <mxPoint x="95" y="122" as="sourcePoint" />
            <mxPoint x="95" y="70" as="targetPoint" />
          </mxGeometry>
        </mxCell>
        <mxCell id="yfvwBcR-MxjjDzGaFpXF-40" value="" style="endArrow=none;html=1;rounded=0;" parent="C5ALai-2bplRqJHYzNEo-1" edge="1">
          <mxGeometry width="50" height="50" relative="1" as="geometry">
            <mxPoint x="95" y="157" as="sourcePoint" />
            <mxPoint x="95" y="135" as="targetPoint" />
          </mxGeometry>
        </mxCell>
        <mxCell id="xKsJRR-zpM4AemHnyZTT-2" style="edgeStyle=orthogonalEdgeStyle;shape=connector;rounded=0;orthogonalLoop=1;jettySize=auto;html=1;exitX=0;exitY=0.75;exitDx=0;exitDy=0;exitPerimeter=0;strokeColor=default;align=center;verticalAlign=middle;fontFamily=Helvetica;fontSize=11;fontColor=default;labelBackgroundColor=default;endArrow=none;endFill=0;" parent="C5ALai-2bplRqJHYzNEo-1" source="yfvwBcR-MxjjDzGaFpXF-3" edge="1">
          <mxGeometry relative="1" as="geometry">
            <mxPoint x="95" y="70" as="targetPoint" />
          </mxGeometry>
        </mxCell>
        <mxCell id="yfvwBcR-MxjjDzGaFpXF-3" value="&lt;p style=&quot;line-height: 110%;&quot;&gt;&lt;br&gt;&lt;/p&gt;" style="verticalLabelPosition=bottom;shadow=0;dashed=0;align=center;html=1;verticalAlign=top;shape=mxgraph.electrical.logic_gates.logic_gate;operation=and;spacingTop=-20;" parent="C5ALai-2bplRqJHYzNEo-1" vertex="1">
          <mxGeometry x="130" y="25" width="100" height="60" as="geometry" />
        </mxCell>
        <mxCell id="yfvwBcR-MxjjDzGaFpXF-5" value="&lt;p style=&quot;line-height: 110%;&quot;&gt;&lt;br&gt;&lt;/p&gt;" style="verticalLabelPosition=bottom;shadow=0;dashed=0;align=center;html=1;verticalAlign=top;shape=mxgraph.electrical.logic_gates.logic_gate;operation=and;spacingTop=-20;" parent="C5ALai-2bplRqJHYzNEo-1" vertex="1">
          <mxGeometry x="130" y="145" width="100" height="60" as="geometry" />
        </mxCell>
        <mxCell id="yfvwBcR-MxjjDzGaFpXF-10" value="" style="endArrow=none;html=1;rounded=0;entryX=0.333;entryY=0.333;entryDx=0;entryDy=0;entryPerimeter=0;" parent="C5ALai-2bplRqJHYzNEo-1" edge="1">
          <mxGeometry width="50" height="50" relative="1" as="geometry">
            <mxPoint x="346" y="114" as="sourcePoint" />
            <mxPoint x="395.98" y="113.98000000000002" as="targetPoint" />
            <Array as="points">
              <mxPoint x="376" y="114" />
            </Array>
          </mxGeometry>
        </mxCell>
        <mxCell id="yfvwBcR-MxjjDzGaFpXF-9" value="" style="endArrow=none;html=1;rounded=0;entryX=0.333;entryY=0.333;entryDx=0;entryDy=0;entryPerimeter=0;" parent="C5ALai-2bplRqJHYzNEo-1" edge="1">
          <mxGeometry width="50" height="50" relative="1" as="geometry">
            <mxPoint x="310" y="127" as="sourcePoint" />
            <mxPoint x="359.98" y="126.98000000000002" as="targetPoint" />
            <Array as="points">
              <mxPoint x="340" y="127" />
            </Array>
          </mxGeometry>
        </mxCell>
        <mxCell id="yfvwBcR-MxjjDzGaFpXF-7" value="" style="endArrow=none;html=1;rounded=0;entryX=0.333;entryY=0.333;entryDx=0;entryDy=0;entryPerimeter=0;" parent="C5ALai-2bplRqJHYzNEo-1" edge="1">
          <mxGeometry width="50" height="50" relative="1" as="geometry">
            <mxPoint x="310" y="101" as="sourcePoint" />
            <mxPoint x="359.98" y="100.98000000000002" as="targetPoint" />
            <Array as="points">
              <mxPoint x="340" y="101" />
            </Array>
          </mxGeometry>
        </mxCell>
        <mxCell id="yfvwBcR-MxjjDzGaFpXF-6" value="" style="shape=xor;whiteSpace=wrap;html=1;" parent="C5ALai-2bplRqJHYzNEo-1" vertex="1">
          <mxGeometry x="320" y="85" width="60" height="60" as="geometry" />
        </mxCell>
        <mxCell id="yfvwBcR-MxjjDzGaFpXF-13" value="" style="endArrow=none;html=1;rounded=0;" parent="C5ALai-2bplRqJHYzNEo-1" edge="1">
          <mxGeometry width="50" height="50" relative="1" as="geometry">
            <mxPoint x="310" y="101" as="sourcePoint" />
            <mxPoint x="280" y="101" as="targetPoint" />
          </mxGeometry>
        </mxCell>
        <mxCell id="yfvwBcR-MxjjDzGaFpXF-14" value="" style="endArrow=none;html=1;rounded=0;entryX=0.333;entryY=0.333;entryDx=0;entryDy=0;entryPerimeter=0;" parent="C5ALai-2bplRqJHYzNEo-1" edge="1">
          <mxGeometry width="50" height="50" relative="1" as="geometry">
            <mxPoint x="230" y="55" as="sourcePoint" />
            <mxPoint x="279.98" y="54.98000000000002" as="targetPoint" />
            <Array as="points">
              <mxPoint x="260" y="55" />
            </Array>
          </mxGeometry>
        </mxCell>
        <mxCell id="yfvwBcR-MxjjDzGaFpXF-15" value="" style="endArrow=none;html=1;rounded=0;" parent="C5ALai-2bplRqJHYzNEo-1" edge="1">
          <mxGeometry width="50" height="50" relative="1" as="geometry">
            <mxPoint x="280" y="55" as="sourcePoint" />
            <mxPoint x="280" y="101" as="targetPoint" />
          </mxGeometry>
        </mxCell>
        <mxCell id="yfvwBcR-MxjjDzGaFpXF-16" value="" style="endArrow=none;html=1;rounded=0;entryX=0.333;entryY=0.333;entryDx=0;entryDy=0;entryPerimeter=0;" parent="C5ALai-2bplRqJHYzNEo-1" edge="1">
          <mxGeometry width="50" height="50" relative="1" as="geometry">
            <mxPoint x="230" y="175" as="sourcePoint" />
            <mxPoint x="280" y="174.98000000000002" as="targetPoint" />
            <Array as="points">
              <mxPoint x="260" y="175" />
            </Array>
          </mxGeometry>
        </mxCell>
        <mxCell id="yfvwBcR-MxjjDzGaFpXF-17" value="" style="endArrow=none;html=1;rounded=0;" parent="C5ALai-2bplRqJHYzNEo-1" edge="1">
          <mxGeometry width="50" height="50" relative="1" as="geometry">
            <mxPoint x="280" y="127" as="sourcePoint" />
            <mxPoint x="280" y="175" as="targetPoint" />
          </mxGeometry>
        </mxCell>
        <mxCell id="yfvwBcR-MxjjDzGaFpXF-18" value="" style="endArrow=none;html=1;rounded=0;" parent="C5ALai-2bplRqJHYzNEo-1" edge="1">
          <mxGeometry width="50" height="50" relative="1" as="geometry">
            <mxPoint x="310" y="127" as="sourcePoint" />
            <mxPoint x="280" y="127" as="targetPoint" />
          </mxGeometry>
        </mxCell>
        <mxCell id="yfvwBcR-MxjjDzGaFpXF-20" value="" style="endArrow=none;html=1;rounded=0;entryX=0.333;entryY=0.333;entryDx=0;entryDy=0;entryPerimeter=0;" parent="C5ALai-2bplRqJHYzNEo-1" edge="1">
          <mxGeometry width="50" height="50" relative="1" as="geometry">
            <mxPoint x="40" y="40" as="sourcePoint" />
            <mxPoint x="133" y="39.98000000000002" as="targetPoint" />
            <Array as="points">
              <mxPoint x="110" y="40" />
            </Array>
          </mxGeometry>
        </mxCell>
        <mxCell id="yfvwBcR-MxjjDzGaFpXF-21" value="" style="endArrow=none;html=1;rounded=0;" parent="C5ALai-2bplRqJHYzNEo-1" source="yfvwBcR-MxjjDzGaFpXF-30" edge="1">
          <mxGeometry width="50" height="50" relative="1" as="geometry">
            <mxPoint x="60" y="190" as="sourcePoint" />
            <mxPoint x="60" y="41" as="targetPoint" />
          </mxGeometry>
        </mxCell>
        <mxCell id="yfvwBcR-MxjjDzGaFpXF-22" value="" style="endArrow=none;html=1;rounded=0;entryX=0.333;entryY=0.333;entryDx=0;entryDy=0;entryPerimeter=0;" parent="C5ALai-2bplRqJHYzNEo-1" edge="1">
          <mxGeometry width="50" height="50" relative="1" as="geometry">
            <mxPoint x="60" y="190" as="sourcePoint" />
            <mxPoint x="130" y="189.98000000000002" as="targetPoint" />
            <Array as="points">
              <mxPoint x="110" y="190" />
            </Array>
          </mxGeometry>
        </mxCell>
        <mxCell id="yfvwBcR-MxjjDzGaFpXF-31" value="" style="endArrow=none;html=1;rounded=0;" parent="C5ALai-2bplRqJHYzNEo-1" source="yfvwBcR-MxjjDzGaFpXF-23" target="yfvwBcR-MxjjDzGaFpXF-30" edge="1">
          <mxGeometry width="50" height="50" relative="1" as="geometry">
            <mxPoint x="60" y="95" as="sourcePoint" />
            <mxPoint x="60" y="41" as="targetPoint" />
          </mxGeometry>
        </mxCell>
        <mxCell id="yfvwBcR-MxjjDzGaFpXF-30" value="" style="shape=ellipse;fillColor=#000000;strokeColor=none;html=1;sketch=0;fontFamily=Helvetica;fontSize=11;fontColor=default;labelBackgroundColor=default;" parent="C5ALai-2bplRqJHYzNEo-1" vertex="1">
          <mxGeometry x="55" y="35" width="10" height="10" as="geometry" />
        </mxCell>
        <mxCell id="yfvwBcR-MxjjDzGaFpXF-35" value="" style="endArrow=none;html=1;rounded=0;" parent="C5ALai-2bplRqJHYzNEo-1" target="yfvwBcR-MxjjDzGaFpXF-34" edge="1">
          <mxGeometry width="50" height="50" relative="1" as="geometry">
            <mxPoint x="60" y="190" as="sourcePoint" />
            <mxPoint x="60" y="125" as="targetPoint" />
          </mxGeometry>
        </mxCell>
        <mxCell id="yfvwBcR-MxjjDzGaFpXF-37" value="" style="endArrow=none;html=1;rounded=0;entryX=0.333;entryY=0.333;entryDx=0;entryDy=0;entryPerimeter=0;" parent="C5ALai-2bplRqJHYzNEo-1" source="yfvwBcR-MxjjDzGaFpXF-38" edge="1">
          <mxGeometry width="50" height="50" relative="1" as="geometry">
            <mxPoint x="40" y="160" as="sourcePoint" />
            <mxPoint x="133" y="159.98000000000002" as="targetPoint" />
            <Array as="points">
              <mxPoint x="110" y="160" />
            </Array>
          </mxGeometry>
        </mxCell>
        <mxCell id="yfvwBcR-MxjjDzGaFpXF-39" value="" style="endArrow=none;html=1;rounded=0;entryX=0.333;entryY=0.333;entryDx=0;entryDy=0;entryPerimeter=0;" parent="C5ALai-2bplRqJHYzNEo-1" edge="1">
          <mxGeometry width="50" height="50" relative="1" as="geometry">
            <mxPoint x="40" y="159" as="sourcePoint" />
            <mxPoint x="93.32999999999993" y="159.32999999999993" as="targetPoint" />
            <Array as="points" />
          </mxGeometry>
        </mxCell>
        <mxCell id="yfvwBcR-MxjjDzGaFpXF-38" value="" style="shape=ellipse;fillColor=#000000;strokeColor=none;html=1;sketch=0;fontFamily=Helvetica;fontSize=11;fontColor=default;labelBackgroundColor=default;" parent="C5ALai-2bplRqJHYzNEo-1" vertex="1">
          <mxGeometry x="90" y="155" width="10" height="10" as="geometry" />
        </mxCell>
        <mxCell id="yfvwBcR-MxjjDzGaFpXF-41" value="" style="group" parent="C5ALai-2bplRqJHYzNEo-1" vertex="1" connectable="0">
          <mxGeometry x="45" y="95" width="30" height="40" as="geometry" />
        </mxCell>
        <mxCell id="yfvwBcR-MxjjDzGaFpXF-23" value="" style="triangle;whiteSpace=wrap;html=1;rotation=90;" parent="yfvwBcR-MxjjDzGaFpXF-41" vertex="1">
          <mxGeometry width="30" height="30" as="geometry" />
        </mxCell>
        <mxCell id="yfvwBcR-MxjjDzGaFpXF-34" value="" style="ellipse;whiteSpace=wrap;html=1;aspect=fixed;" parent="yfvwBcR-MxjjDzGaFpXF-41" vertex="1">
          <mxGeometry x="10" y="30" width="10" height="10" as="geometry" />
        </mxCell>
        <mxCell id="yfvwBcR-MxjjDzGaFpXF-25" value="" style="endArrow=none;html=1;rounded=0;" parent="yfvwBcR-MxjjDzGaFpXF-41" source="yfvwBcR-MxjjDzGaFpXF-34" target="yfvwBcR-MxjjDzGaFpXF-23" edge="1">
          <mxGeometry width="50" height="50" relative="1" as="geometry">
            <mxPoint x="15" y="95" as="sourcePoint" />
            <mxPoint x="15" y="-54" as="targetPoint" />
          </mxGeometry>
        </mxCell>
        <mxCell id="yfvwBcR-MxjjDzGaFpXF-42" value="" style="group;flipV=0;" parent="C5ALai-2bplRqJHYzNEo-1" vertex="1" connectable="0">
          <mxGeometry x="80" y="105" width="30" height="40" as="geometry" />
        </mxCell>
        <mxCell id="yfvwBcR-MxjjDzGaFpXF-43" value="" style="triangle;whiteSpace=wrap;html=1;rotation=-90;" parent="yfvwBcR-MxjjDzGaFpXF-42" vertex="1">
          <mxGeometry width="30" height="30" as="geometry" />
        </mxCell>
        <mxCell id="yfvwBcR-MxjjDzGaFpXF-44" value="" style="ellipse;whiteSpace=wrap;html=1;aspect=fixed;" parent="yfvwBcR-MxjjDzGaFpXF-42" vertex="1">
          <mxGeometry x="10" y="-10" width="10" height="10" as="geometry" />
        </mxCell>
        <mxCell id="yfvwBcR-MxjjDzGaFpXF-45" value="" style="endArrow=none;html=1;rounded=0;" parent="yfvwBcR-MxjjDzGaFpXF-42" source="yfvwBcR-MxjjDzGaFpXF-44" target="yfvwBcR-MxjjDzGaFpXF-43" edge="1">
          <mxGeometry width="50" height="50" relative="1" as="geometry">
            <mxPoint x="15" y="95" as="sourcePoint" />
            <mxPoint x="15" y="-54" as="targetPoint" />
          </mxGeometry>
        </mxCell>
        <mxCell id="yfvwBcR-MxjjDzGaFpXF-49" value="&lt;font style=&quot;font-size: 12px;&quot;&gt;a&lt;/font&gt;" style="text;html=1;align=center;verticalAlign=middle;resizable=0;points=[];autosize=1;strokeColor=none;fillColor=none;" parent="C5ALai-2bplRqJHYzNEo-1" vertex="1">
          <mxGeometry x="15" y="25" width="30" height="30" as="geometry" />
        </mxCell>
        <mxCell id="yfvwBcR-MxjjDzGaFpXF-50" value="&lt;font style=&quot;font-size: 12px;&quot;&gt;b&lt;/font&gt;" style="text;html=1;align=center;verticalAlign=middle;resizable=0;points=[];autosize=1;strokeColor=none;fillColor=none;" parent="C5ALai-2bplRqJHYzNEo-1" vertex="1">
          <mxGeometry x="15" y="145" width="30" height="30" as="geometry" />
        </mxCell>
        <mxCell id="yfvwBcR-MxjjDzGaFpXF-51" value="&lt;font style=&quot;font-size: 12px;&quot;&gt;out&lt;/font&gt;" style="text;html=1;align=center;verticalAlign=middle;resizable=0;points=[];autosize=1;strokeColor=none;fillColor=none;" parent="C5ALai-2bplRqJHYzNEo-1" vertex="1">
          <mxGeometry x="389" y="99" width="40" height="30" as="geometry" />
        </mxCell>
        <mxCell id="yfvwBcR-MxjjDzGaFpXF-52" value="con1" style="text;html=1;align=center;verticalAlign=middle;resizable=0;points=[];autosize=1;strokeColor=none;fillColor=none;fontColor=#999999;" parent="C5ALai-2bplRqJHYzNEo-1" vertex="1">
          <mxGeometry x="208" y="31" width="50" height="30" as="geometry" />
        </mxCell>
        <mxCell id="yfvwBcR-MxjjDzGaFpXF-55" value="&lt;font color=&quot;#999999&quot;&gt;con2&lt;/font&gt;" style="text;html=1;align=center;verticalAlign=middle;resizable=0;points=[];autosize=1;strokeColor=none;fillColor=none;" parent="C5ALai-2bplRqJHYzNEo-1" vertex="1">
          <mxGeometry x="208" y="150" width="50" height="30" as="geometry" />
        </mxCell>
        <mxCell id="C5ALai-2bplRqJHYzNEo-2" value="&lt;div style=&quot;color: rgb(248, 248, 242); background-color: rgb(38, 41, 44); font-family: &amp;quot;Fira Code&amp;quot;, Consolas, &amp;quot;Courier New&amp;quot;, monospace, Menlo, Monaco, &amp;quot;Courier New&amp;quot;, monospace; font-size: 16px; line-height: 24px; white-space-collapse: preserve;&quot;&gt;XOR_Gate&lt;/div&gt;" style="text;html=1;align=center;verticalAlign=middle;resizable=0;points=[];autosize=1;strokeColor=none;fillColor=none;fontFamily=Helvetica;fontSize=11;fontColor=default;labelBackgroundColor=default;" parent="1" vertex="1">
          <mxGeometry x="10" width="100" height="40" as="geometry" />
        </mxCell>
        <mxCell id="SkFrcti8Il92FM9Hi4WI-1" value="" style="group" parent="1" vertex="1" connectable="0">
          <mxGeometry x="40" y="320" width="620" height="330" as="geometry" />
        </mxCell>
        <mxCell id="yfvwBcR-MxjjDzGaFpXF-88" value="con2" style="text;html=1;align=center;verticalAlign=middle;resizable=0;points=[];autosize=1;strokeColor=none;fillColor=none;fontColor=#999999;" parent="SkFrcti8Il92FM9Hi4WI-1" vertex="1">
          <mxGeometry x="322" y="146" width="50" height="30" as="geometry" />
        </mxCell>
        <mxCell id="yfvwBcR-MxjjDzGaFpXF-32" value="" style="shape=ellipse;fillColor=#f5f5f5;strokeColor=#FFFFFF;html=1;sketch=0;fontFamily=Helvetica;fontSize=11;fontColor=#333333;labelBackgroundColor=#FFFFFF;opacity=0;strokeWidth=1;fillStyle=auto;labelBorderColor=none;" parent="SkFrcti8Il92FM9Hi4WI-1" vertex="1">
          <mxGeometry x="566" y="184" width="10" height="10" as="geometry" />
        </mxCell>
        <mxCell id="yfvwBcR-MxjjDzGaFpXF-92" value="" style="rounded=0;whiteSpace=wrap;html=1;fillStyle=auto;fillColor=none;" parent="SkFrcti8Il92FM9Hi4WI-1" vertex="1">
          <mxGeometry width="620" height="330" as="geometry" />
        </mxCell>
        <mxCell id="yfvwBcR-MxjjDzGaFpXF-77" value="" style="endArrow=none;html=1;rounded=0;startArrow=block;startFill=1;exitX=0;exitY=0.5;exitDx=0;exitDy=0;" parent="SkFrcti8Il92FM9Hi4WI-1" edge="1" source="yfvwBcR-MxjjDzGaFpXF-75">
          <mxGeometry width="50" height="50" relative="1" as="geometry">
            <mxPoint x="430" y="230" as="sourcePoint" />
            <mxPoint x="430" y="295" as="targetPoint" />
          </mxGeometry>
        </mxCell>
        <mxCell id="yfvwBcR-MxjjDzGaFpXF-67" value="" style="endArrow=block;html=1;rounded=0;exitX=0.027;exitY=0.879;exitDx=0;exitDy=0;endFill=1;exitPerimeter=0;" parent="SkFrcti8Il92FM9Hi4WI-1" edge="1" source="yfvwBcR-MxjjDzGaFpXF-91">
          <mxGeometry width="50" height="50" relative="1" as="geometry">
            <mxPoint x="334" y="170" as="sourcePoint" />
            <mxPoint x="590" y="170" as="targetPoint" />
          </mxGeometry>
        </mxCell>
        <mxCell id="yfvwBcR-MxjjDzGaFpXF-59" value="XOR Gate" style="rounded=1;whiteSpace=wrap;html=1;" parent="SkFrcti8Il92FM9Hi4WI-1" vertex="1">
          <mxGeometry x="70" y="50" width="120" height="80" as="geometry" />
        </mxCell>
        <mxCell id="yfvwBcR-MxjjDzGaFpXF-61" value="&lt;p style=&quot;line-height: 110%;&quot;&gt;&lt;br&gt;&lt;/p&gt;" style="verticalLabelPosition=bottom;shadow=0;dashed=0;align=center;html=1;verticalAlign=top;shape=mxgraph.electrical.logic_gates.logic_gate;operation=and;spacingTop=-20;" parent="SkFrcti8Il92FM9Hi4WI-1" vertex="1">
          <mxGeometry x="250" y="140" width="100" height="60" as="geometry" />
        </mxCell>
        <mxCell id="yfvwBcR-MxjjDzGaFpXF-62" value="" style="endArrow=none;html=1;rounded=0;exitX=1;exitY=0.5;exitDx=0;exitDy=0;" parent="SkFrcti8Il92FM9Hi4WI-1" source="yfvwBcR-MxjjDzGaFpXF-59" edge="1">
          <mxGeometry width="50" height="50" relative="1" as="geometry">
            <mxPoint x="300" y="370" as="sourcePoint" />
            <mxPoint x="230" y="90" as="targetPoint" />
          </mxGeometry>
        </mxCell>
        <mxCell id="yfvwBcR-MxjjDzGaFpXF-63" value="" style="endArrow=none;html=1;rounded=0;exitX=1;exitY=0.5;exitDx=0;exitDy=0;" parent="SkFrcti8Il92FM9Hi4WI-1" edge="1">
          <mxGeometry width="50" height="50" relative="1" as="geometry">
            <mxPoint x="230" y="155" as="sourcePoint" />
            <mxPoint x="270" y="155" as="targetPoint" />
          </mxGeometry>
        </mxCell>
        <mxCell id="yfvwBcR-MxjjDzGaFpXF-64" value="" style="endArrow=none;html=1;rounded=0;" parent="SkFrcti8Il92FM9Hi4WI-1" edge="1">
          <mxGeometry width="50" height="50" relative="1" as="geometry">
            <mxPoint x="230" y="90" as="sourcePoint" />
            <mxPoint x="230" y="155" as="targetPoint" />
          </mxGeometry>
        </mxCell>
        <mxCell id="yfvwBcR-MxjjDzGaFpXF-65" value="" style="endArrow=none;html=1;rounded=0;exitX=1;exitY=0.5;exitDx=0;exitDy=0;" parent="SkFrcti8Il92FM9Hi4WI-1" edge="1">
          <mxGeometry width="50" height="50" relative="1" as="geometry">
            <mxPoint x="230" y="185" as="sourcePoint" />
            <mxPoint x="270" y="185" as="targetPoint" />
          </mxGeometry>
        </mxCell>
        <mxCell id="yfvwBcR-MxjjDzGaFpXF-66" value="D Flip Flop" style="rounded=1;whiteSpace=wrap;html=1;" parent="SkFrcti8Il92FM9Hi4WI-1" vertex="1">
          <mxGeometry x="370" y="140" width="120" height="130" as="geometry" />
        </mxCell>
        <mxCell id="yfvwBcR-MxjjDzGaFpXF-68" value="" style="endArrow=none;html=1;rounded=0;" parent="SkFrcti8Il92FM9Hi4WI-1" edge="1">
          <mxGeometry width="50" height="50" relative="1" as="geometry">
            <mxPoint x="550" y="30" as="sourcePoint" />
            <mxPoint x="550" y="170" as="targetPoint" />
          </mxGeometry>
        </mxCell>
        <mxCell id="yfvwBcR-MxjjDzGaFpXF-69" value="" style="endArrow=none;html=1;rounded=0;" parent="SkFrcti8Il92FM9Hi4WI-1" edge="1">
          <mxGeometry width="50" height="50" relative="1" as="geometry">
            <mxPoint x="30" y="30" as="sourcePoint" />
            <mxPoint x="550" y="30" as="targetPoint" />
          </mxGeometry>
        </mxCell>
        <mxCell id="yfvwBcR-MxjjDzGaFpXF-71" value="" style="endArrow=none;html=1;rounded=0;" parent="SkFrcti8Il92FM9Hi4WI-1" edge="1">
          <mxGeometry width="50" height="50" relative="1" as="geometry">
            <mxPoint x="29.5" y="30" as="sourcePoint" />
            <mxPoint x="30" y="70" as="targetPoint" />
          </mxGeometry>
        </mxCell>
        <mxCell id="yfvwBcR-MxjjDzGaFpXF-72" value="" style="endArrow=block;html=1;rounded=0;entryX=0;entryY=0.25;entryDx=0;entryDy=0;endFill=1;" parent="SkFrcti8Il92FM9Hi4WI-1" target="yfvwBcR-MxjjDzGaFpXF-59" edge="1">
          <mxGeometry width="50" height="50" relative="1" as="geometry">
            <mxPoint x="30" y="70" as="sourcePoint" />
            <mxPoint x="350" y="320" as="targetPoint" />
          </mxGeometry>
        </mxCell>
        <mxCell id="yfvwBcR-MxjjDzGaFpXF-73" value="" style="endArrow=block;html=1;rounded=0;entryX=0;entryY=0.25;entryDx=0;entryDy=0;endFill=1;" parent="SkFrcti8Il92FM9Hi4WI-1" edge="1">
          <mxGeometry width="50" height="50" relative="1" as="geometry">
            <mxPoint x="30" y="109" as="sourcePoint" />
            <mxPoint x="70" y="109" as="targetPoint" />
          </mxGeometry>
        </mxCell>
        <mxCell id="yfvwBcR-MxjjDzGaFpXF-74" value="D" style="text;html=1;align=center;verticalAlign=middle;resizable=0;points=[];autosize=1;strokeColor=none;fillColor=none;" parent="SkFrcti8Il92FM9Hi4WI-1" vertex="1">
          <mxGeometry x="369" y="155" width="30" height="30" as="geometry" />
        </mxCell>
        <mxCell id="yfvwBcR-MxjjDzGaFpXF-75" value="" style="triangle;whiteSpace=wrap;html=1;rotation=-90;" parent="SkFrcti8Il92FM9Hi4WI-1" vertex="1">
          <mxGeometry x="420" y="245" width="20" height="30" as="geometry" />
        </mxCell>
        <mxCell id="yfvwBcR-MxjjDzGaFpXF-78" value="clk" style="text;html=1;align=center;verticalAlign=middle;resizable=0;points=[];autosize=1;strokeColor=none;fillColor=none;" parent="SkFrcti8Il92FM9Hi4WI-1" vertex="1">
          <mxGeometry x="410" y="290" width="40" height="30" as="geometry" />
        </mxCell>
        <mxCell id="yfvwBcR-MxjjDzGaFpXF-79" value="Q" style="text;html=1;align=center;verticalAlign=middle;resizable=0;points=[];autosize=1;strokeColor=none;fillColor=none;" parent="SkFrcti8Il92FM9Hi4WI-1" vertex="1">
          <mxGeometry x="460" y="155" width="30" height="30" as="geometry" />
        </mxCell>
        <mxCell id="yfvwBcR-MxjjDzGaFpXF-80" value="" style="shape=ellipse;fillColor=#000000;strokeColor=none;html=1;sketch=0;fontFamily=Helvetica;fontSize=11;fontColor=default;labelBackgroundColor=default;" parent="SkFrcti8Il92FM9Hi4WI-1" vertex="1">
          <mxGeometry x="545" y="165" width="10" height="10" as="geometry" />
        </mxCell>
        <mxCell id="yfvwBcR-MxjjDzGaFpXF-83" value="t" style="text;html=1;align=center;verticalAlign=middle;resizable=0;points=[];autosize=1;strokeColor=none;fillColor=none;" parent="SkFrcti8Il92FM9Hi4WI-1" vertex="1">
          <mxGeometry x="7" y="95" width="30" height="30" as="geometry" />
        </mxCell>
        <mxCell id="yfvwBcR-MxjjDzGaFpXF-85" value="&lt;font color=&quot;#000000&quot;&gt;rst_n&lt;/font&gt;" style="text;html=1;align=center;verticalAlign=middle;resizable=0;points=[];autosize=1;strokeColor=none;fillColor=none;fontColor=#999999;" parent="SkFrcti8Il92FM9Hi4WI-1" vertex="1">
          <mxGeometry x="185" y="170" width="50" height="30" as="geometry" />
        </mxCell>
        <mxCell id="yfvwBcR-MxjjDzGaFpXF-86" value="con1" style="text;html=1;align=center;verticalAlign=middle;resizable=0;points=[];autosize=1;strokeColor=none;fillColor=none;fontColor=#999999;" parent="SkFrcti8Il92FM9Hi4WI-1" vertex="1">
          <mxGeometry x="181" y="65" width="50" height="30" as="geometry" />
        </mxCell>
        <mxCell id="yfvwBcR-MxjjDzGaFpXF-90" value="Clk" style="text;html=1;align=center;verticalAlign=middle;resizable=0;points=[];autosize=1;strokeColor=none;fillColor=none;" parent="SkFrcti8Il92FM9Hi4WI-1" vertex="1">
          <mxGeometry x="410" y="230" width="40" height="30" as="geometry" />
        </mxCell>
        <mxCell id="yfvwBcR-MxjjDzGaFpXF-91" value="q" style="text;html=1;align=center;verticalAlign=middle;resizable=0;points=[];autosize=1;strokeColor=none;fillColor=none;" parent="SkFrcti8Il92FM9Hi4WI-1" vertex="1">
          <mxGeometry x="489" y="144" width="30" height="30" as="geometry" />
        </mxCell>
        <mxCell id="nYSQMnWgOTBH7heFmTRp-1" style="edgeStyle=orthogonalEdgeStyle;rounded=0;orthogonalLoop=1;jettySize=auto;html=1;exitX=1;exitY=0.5;exitDx=0;exitDy=0;exitPerimeter=0;entryX=0.038;entryY=0.524;entryDx=0;entryDy=0;entryPerimeter=0;endArrow=block;endFill=1;" edge="1" parent="SkFrcti8Il92FM9Hi4WI-1" source="yfvwBcR-MxjjDzGaFpXF-61" target="yfvwBcR-MxjjDzGaFpXF-74">
          <mxGeometry relative="1" as="geometry" />
        </mxCell>
        <mxCell id="SkFrcti8Il92FM9Hi4WI-3" value="&lt;div style=&quot;color: rgb(248, 248, 242); background-color: rgb(38, 41, 44); font-family: &amp;quot;Fira Code&amp;quot;, Consolas, &amp;quot;Courier New&amp;quot;, monospace, Menlo, Monaco, &amp;quot;Courier New&amp;quot;, monospace; font-size: 16px; line-height: 24px; white-space-collapse: preserve;&quot;&gt;Toggle_Flip_Flop&lt;/div&gt;" style="text;html=1;align=center;verticalAlign=middle;resizable=0;points=[];autosize=1;strokeColor=none;fillColor=none;fontFamily=Helvetica;fontSize=11;fontColor=default;labelBackgroundColor=default;" parent="1" vertex="1">
          <mxGeometry x="10" y="280" width="180" height="40" as="geometry" />
        </mxCell>
      </root>
    </mxGraphModel>
  </diagram>
</mxfile>
